<svg width="30" height="28" viewBox="0 0 30 28" fill="none" xmlns="http://www.w3.org/2000/svg">
<path d="M29.9934 17.6211V19.1672C29.9934 19.2559 29.9387 19.3348 29.8592 19.3694C29.372 19.5765 27.7039 20.3359 27.0103 21.2927C25.2403 23.7362 23.888 27.2303 20.8651 27.2303H8.25401C3.78436 27.2303 0.162354 23.6253 0.162354 19.177V19.034C0.162354 18.9157 0.259283 18.8195 0.378618 18.8195H7.40884C7.54801 18.8195 7.64993 18.9477 7.63754 19.0833C7.58779 19.537 7.67233 20.0006 7.8886 20.4222C8.30622 21.2631 9.17133 21.7883 10.106 21.7883H13.5863V19.0932H10.1458C9.96931 19.0932 9.86493 18.891 9.96685 18.748C10.0041 18.6913 10.0464 18.6321 10.0911 18.5655C10.4168 18.1069 10.8816 17.3943 11.344 16.5831C11.6597 16.0357 11.9655 15.4513 12.2116 14.8644C12.2614 14.7584 12.3011 14.6499 12.3409 14.5438C12.408 14.3564 12.4776 14.1814 12.5273 14.0063C12.5771 13.8583 12.6168 13.703 12.6566 13.5575C12.7734 13.0594 12.8231 12.5318 12.8231 11.9844C12.8231 11.7699 12.8132 11.5455 12.7933 11.3309C12.7834 11.0967 12.7536 10.8624 12.7237 10.6282C12.7038 10.4211 12.6665 10.2164 12.6268 10.0019C12.5771 9.68872 12.5074 9.37806 12.4279 9.06486L12.4005 8.94654C12.3409 8.73198 12.2912 8.52736 12.2216 8.31284C12.0252 7.63964 11.799 6.98377 11.5603 6.3698C11.4733 6.12568 11.3738 5.89144 11.2744 5.6572C11.1278 5.30459 10.9786 4.98404 10.8419 4.68073C10.7723 4.54264 10.7126 4.41688 10.6529 4.28867C10.5858 4.14318 10.5162 3.99769 10.4466 3.85964C10.3969 3.75361 10.3397 3.65497 10.2999 3.55633L9.87485 2.77715C9.81518 2.67112 9.91463 2.54536 10.0314 2.57742L12.6914 3.29248H12.6989C12.7038 3.29248 12.7063 3.29497 12.7088 3.29497L13.0593 3.39112L13.4446 3.49964L13.5863 3.53905V1.97084C13.5863 1.21384 14.1979 0.599869 14.9536 0.599869C15.3315 0.599869 15.6745 0.752748 15.9206 1.00177C16.1667 1.25084 16.3208 1.59112 16.3208 1.97084V4.29856L16.6043 4.37742C16.6266 4.38486 16.649 4.3947 16.6689 4.40948C16.7385 4.46128 16.8379 4.53769 16.9647 4.63144C17.0641 4.7103 17.171 4.80649 17.3003 4.90513C17.5563 5.10976 17.8621 5.37361 18.1977 5.67692C18.2872 5.75334 18.3742 5.83225 18.4538 5.91116C18.8863 6.31062 19.3711 6.7791 19.8335 7.29692C19.9627 7.44241 20.0895 7.59035 20.2188 7.74568C20.348 7.9035 20.4848 8.05883 20.6041 8.2142C20.7607 8.42132 20.9297 8.63583 21.0764 8.86024C21.146 8.96627 21.2256 9.07475 21.2927 9.18078C21.4816 9.46432 21.6482 9.75779 21.8073 10.0512C21.8744 10.1868 21.944 10.3347 22.0037 10.4802C22.1802 10.8723 22.3194 11.2718 22.4089 11.6712C22.4362 11.7575 22.4561 11.8512 22.4661 11.9351V11.9548C22.4959 12.0731 22.5058 12.1989 22.5158 12.3271C22.5555 12.7364 22.5356 13.1457 22.4462 13.5575C22.4089 13.7326 22.3592 13.8978 22.2995 14.0729C22.2398 14.2406 22.1802 14.4156 22.1031 14.5808C21.954 14.9235 21.7774 15.2663 21.5686 15.5869C21.5015 15.7052 21.4219 15.831 21.3424 15.9494C21.2554 16.0751 21.1659 16.1934 21.0863 16.3094C20.977 16.4573 20.8602 16.6126 20.7408 16.7507C20.6339 16.8962 20.5246 17.0417 20.4052 17.1699C20.2387 17.3647 20.0795 17.5496 19.913 17.7272C19.8136 17.8431 19.7067 17.9614 19.5973 18.0674C19.4904 18.1858 19.381 18.2918 19.2816 18.3904C19.115 18.5557 18.9758 18.6839 18.859 18.7899L18.5855 19.039C18.5458 19.0735 18.4935 19.0932 18.4389 19.0932H16.3208V21.7883H18.9857C19.5824 21.7883 20.1492 21.5787 20.6066 21.194C20.7632 21.0584 21.4468 20.4716 22.2547 19.5864C22.2821 19.5567 22.3169 19.5346 22.3567 19.5247L29.7175 17.414C29.8542 17.3746 29.9934 17.4781 29.9934 17.6211Z" fill="white"/>
</svg>
