<svg width="24" height="25" viewBox="0 0 24 25" fill="none" xmlns="http://www.w3.org/2000/svg">
<path d="M11.9967 6.6283C8.79802 6.6283 6.21657 9.39301 6.21657 12.8187C6.21657 16.2444 8.79802 19.0091 11.9967 19.0091C15.1953 19.0091 17.7767 16.2444 17.7767 12.8187C17.7767 9.39301 15.1953 6.6283 11.9967 6.6283ZM11.9967 16.842C9.92811 16.842 8.24002 15.0341 8.24002 12.8187C8.24002 10.6033 9.92811 8.7954 11.9967 8.7954C14.0652 8.7954 15.7533 10.6033 15.7533 12.8187C15.7533 15.0341 14.0652 16.842 11.9967 16.842ZM18.0135 4.93205C17.2666 4.93205 16.6636 5.57796 16.6636 6.37779C16.6636 7.17762 17.2666 7.82353 18.0135 7.82353C18.7603 7.82353 19.3634 7.18064 19.3634 6.37779C19.3636 6.18787 19.3288 5.99976 19.2611 5.82425C19.1933 5.64873 19.0939 5.48926 18.9685 5.35497C18.8431 5.22067 18.6942 5.11419 18.5303 5.04162C18.3664 4.96905 18.1908 4.93181 18.0135 4.93205ZM23.2637 12.8187C23.2637 11.1526 23.2778 9.50167 23.1905 7.83862C23.1031 5.90694 22.6916 4.19258 21.3727 2.78004C20.051 1.36449 18.4531 0.926844 16.6495 0.833278C15.0938 0.739713 13.5523 0.754804 11.9995 0.754804C10.4438 0.754804 8.90229 0.739713 7.34948 0.833278C5.54584 0.926844 3.94512 1.36751 2.62621 2.78004C1.30449 4.1956 0.895849 5.90694 0.808486 7.83862C0.721122 9.50469 0.735213 11.1557 0.735213 12.8187C0.735213 14.4818 0.721122 16.1358 0.808486 17.7988C0.895849 19.7305 1.3073 21.4449 2.62621 22.8574C3.94794 24.2729 5.54584 24.7106 7.34948 24.8042C8.90511 24.8977 10.4467 24.8826 11.9995 24.8826C13.5551 24.8826 15.0966 24.8977 16.6495 24.8042C18.4531 24.7106 20.0538 24.2699 21.3727 22.8574C22.6945 21.4418 23.1031 19.7305 23.1905 17.7988C23.2806 16.1358 23.2637 14.4848 23.2637 12.8187ZM20.7837 19.9357C20.578 20.4851 20.33 20.8955 19.9326 21.3181C19.5353 21.7437 19.1548 22.0093 18.6419 22.2296C17.1596 22.8604 13.6397 22.7186 11.9967 22.7186C10.3537 22.7186 6.83093 22.8604 5.34857 22.2326C4.83566 22.0123 4.45239 21.7467 4.05785 21.3211C3.66048 20.8955 3.41248 20.4881 3.20676 19.9388C2.62057 18.3481 2.75303 14.5784 2.75303 12.8187C2.75303 11.0591 2.62057 7.28628 3.20676 5.69868C3.41248 5.14936 3.66048 4.73888 4.05785 4.31633C4.45521 3.89378 4.83566 3.62515 5.34857 3.40482C6.83093 2.77703 10.3537 2.91888 11.9967 2.91888C13.6397 2.91888 17.1624 2.77703 18.6447 3.40482C19.1576 3.62515 19.5409 3.89076 19.9355 4.31633C20.3328 4.7419 20.5808 5.14936 20.7866 5.69868C21.3727 7.28628 21.2403 11.0591 21.2403 12.8187C21.2403 14.5784 21.3727 18.3481 20.7837 19.9357Z" fill="url(#paint0_linear_3237_229)"/>
<defs>
<linearGradient id="paint0_linear_3237_229" x1="11.9997" y1="0.753906" x2="11.9997" y2="24.8835" gradientUnits="userSpaceOnUse">
<stop stop-color="#F01D97"/>
<stop offset="1" stop-color="#FF6D00"/>
</linearGradient>
</defs>
</svg>
