<svg width="48" height="48" viewBox="0 0 48 48" fill="none" xmlns="http://www.w3.org/2000/svg">
<path d="M0 24C0 10.7419 10.7419 0 24 0C37.2581 0 48 10.7419 48 24C48 37.2581 37.2581 48 24 48C10.7419 48 0 37.2581 0 24ZM28.2581 35.2258V24H35.1194C36.1548 24 36.6774 22.7419 35.9419 22.0161L24.8226 10.9548C24.3677 10.5 23.6419 10.5 23.1871 10.9548L12.0581 22.0161C11.3226 22.7516 11.8452 24 12.8806 24H19.7419V35.2258C19.7419 35.8645 20.2645 36.3871 20.9032 36.3871H27.0968C27.7355 36.3871 28.2581 35.8645 28.2581 35.2258Z" fill="url(#paint0_linear_3243_488)"/>
<defs>
<linearGradient id="paint0_linear_3243_488" x1="24" y1="0" x2="24" y2="48" gradientUnits="userSpaceOnUse">
<stop stop-color="#F01D97"/>
<stop offset="1" stop-color="#FF6D00"/>
</linearGradient>
</defs>
</svg>
