<svg width="32" height="26" viewBox="0 0 32 26" fill="none" xmlns="http://www.w3.org/2000/svg">
<path d="M26.3275 7.98436C26.344 8.2031 26.344 8.42188 26.344 8.64062C26.344 15.3125 20.9823 23 11.1828 23C8.16371 23 5.35915 22.1718 3 20.7344C3.42895 20.7812 3.84135 20.7969 4.2868 20.7969C6.77789 20.7969 9.07107 20 10.9023 18.6406C8.55965 18.5938 6.59644 17.1406 5.92003 15.1406C6.25001 15.1875 6.57994 15.2187 6.92642 15.2187C7.40483 15.2187 7.8833 15.1562 8.3287 15.0469C5.88708 14.5781 4.0558 12.5469 4.0558 10.0937V10.0313C4.76516 10.4063 5.59011 10.6406 6.46441 10.6719C5.02913 9.76558 4.08881 8.21873 4.08881 6.46871C4.08881 5.53123 4.35272 4.67186 4.81468 3.92185C7.43779 6.98435 11.3807 8.98432 15.802 9.2031C15.7195 8.8281 15.67 8.43752 15.67 8.04688C15.67 5.2656 18.0457 3 20.9987 3C22.533 3 23.9188 3.60937 24.8921 4.59375C26.0964 4.37501 27.2512 3.95311 28.2741 3.375C27.8781 4.5469 27.0368 5.53128 25.9315 6.15624C27.0038 6.04691 28.0432 5.7656 29 5.37502C28.2742 6.37498 27.3668 7.26557 26.3275 7.98436Z" stroke="url(#paint0_linear_3354_304)" stroke-width="1.5"/>
<defs>
<linearGradient id="paint0_linear_3354_304" x1="16" y1="3" x2="16" y2="23" gradientUnits="userSpaceOnUse">
<stop stop-color="#F01D97"/>
<stop offset="1" stop-color="#FF6D00"/>
</linearGradient>
</defs>
</svg>
